<svg width="128" height="128" viewBox="0 0 128 128" fill="none" xmlns="http://www.w3.org/2000/svg">
<rect width="128" height="128" fill="white"/>
<path d="M33.7265 45.7752C31.2219 39.47 37.2096 33.1052 43.6558 35.2206L104.011 55.0272L103.74 57.4563C100.985 82.0846 81.7558 101.641 57.1775 104.81L33.7265 45.7752Z" fill="#2D2D2D"/>
<path fill-rule="evenodd" clip-rule="evenodd" d="M76.4648 46.0477L43.5859 34.8104C37.1765 32.6198 31.0322 39.1922 33.5 45.5L46.3157 77.5403L76.4648 46.0477Z" fill="#D9D9D9"/>
<path d="M77 98.1403C69 102.79 61.99 104.64 57 105C45.5 75.5 57 105 45.5 75.5C56 66.0001 55.0109 66.9167 56 66C76.5 47 77.5 91.1403 77 98.1403Z" fill="#29BFA4"/>
<path d="M77 98.1403C69 102.79 61.99 104.64 57 105C45.5 75.5 57 105 45.5 75.5C56 66.0001 55.0109 66.9167 56 66C76.5 47 77.5 91.1403 77 98.1403Z" fill="#29BFA4"/>
<path d="M77 98.1403C69 102.79 61.99 104.64 57 105C45.5 75.5 57 105 45.5 75.5C56 66.0001 55.0109 66.9167 56 66C76.5 47 77.5 91.1403 77 98.1403Z" fill="#29BFA4"/>
<path d="M104 55C102.5 71.5001 96 80.4999 92 85.4999C87.2574 56.3664 66.0708 93.4423 56 66.0001C75 45.4998 56 66.0001 75 45.4998C104 55 75 45.4998 104 55Z" fill="#D053B5"/>
</svg>
